<svg id="visual" viewBox="0 0 960 300" width="960" height="300" xmlns="http://www.w3.org/2000/svg" xmlns:xlink="http://www.w3.org/1999/xlink" version="1.1"><path d="M0 233L17.8 229.2C35.7 225.3 71.3 217.7 106.8 221.5C142.3 225.3 177.7 240.7 213.2 242.7C248.7 244.7 284.3 233.3 320 228C355.7 222.7 391.3 223.3 426.8 230.8C462.3 238.3 497.7 252.7 533.2 260.2C568.7 267.7 604.3 268.3 640 261.7C675.7 255 711.3 241 746.8 232.8C782.3 224.7 817.7 222.3 853.2 220.2C888.7 218 924.3 216 942.2 215L960 214L960 301L942.2 301C924.3 301 888.7 301 853.2 301C817.7 301 782.3 301 746.8 301C711.3 301 675.7 301 640 301C604.3 301 568.7 301 533.2 301C497.7 301 462.3 301 426.8 301C391.3 301 355.7 301 320 301C284.3 301 248.7 301 213.2 301C177.7 301 142.3 301 106.8 301C71.3 301 35.7 301 17.8 301L0 301Z" fill="#5f2c3e" stroke-linecap="round" stroke-linejoin="miter"></path></svg>